<svg xmlns="http://www.w3.org/2000/svg" width="43.792" height="60.42" viewBox="0 0 43.792 60.42">
  <path id="Path_25" data-name="Path 25" d="M3262.851,845.3H3243.36a12.151,12.151,0,0,0-12.15,12.151v36.118a12.151,12.151,0,0,0,12.15,12.151h19.491A12.151,12.151,0,0,0,3275,893.568V857.45A12.151,12.151,0,0,0,3262.851,845.3Zm6.353,16.448a8.447,8.447,0,0,1-8.448,8.445h-15.3a8.445,8.445,0,0,1-8.446-8.445h0a8.445,8.445,0,0,1,8.446-8.446h15.3a8.447,8.447,0,0,1,8.448,8.446Z" transform="translate(-3231.209 -845.299)" fill="#6400ff"/>
</svg>
